solid cube
  facet normal 0.000000E+000 0.000000E+000 -1.000000E+000
    outer loop
      vertex 0.000000E+000 0.000000E+000 0.000000E+000
      vertex 0.000000E+000 1.000000E+001 0.000000E+000
      vertex 1.000000E+001 1.000000E+001 0.000000E+000
    endloop
  endfacet
  facet normal 0.000000E+000 0.000000E+000 -1.000000E+000
    outer loop
      vertex 0.000000E+000 0.000000E+000 0.000000E+000
      vertex 1.000000E+001 1.000000E+001 0.000000E+000
      vertex 1.000000E+001 0.000000E+000 0.000000E+000
    endloop
  endfacet
  facet normal 0.000000E+000 0.000000E+000 1.000000E+000
    outer loop
      vertex 0.000000E+000 0.000000E+000 1.000000E+001
      vertex 1.000000E+001 0.000000E+000 1.000000E+001
      vertex 1.000000E+001 1.000000E+001 1.000000E+001
    endloop
  endfacet
  facet normal 0.000000E+000 0.000000E+000 1.000000E+000
    outer loop
      vertex 0.000000E+000 0.000000E+000 1.000000E+001
      vertex 1.000000E+001 1.000000E+001 1.000000E+001
      vertex 0.000000E+000 1.000000E+001 1.000000E+001
    endloop
  endfacet
  facet normal 0.000000E+000 -1.000000E+000 0.000000E+000
    outer loop
      vertex 0.000000E+000 0.000000E+000 0.000000E+000
      vertex 1.000000E+001 0.000000E+000 0.000000E+000
      vertex 1.000000E+001 0.000000E+000 1.000000E+001
    endloop
  endfacet
  facet normal 0.000000E+000 -1.000000E+000 0.000000E+000
    outer loop
      vertex 0.000000E+000 0.000000E+000 0.000000E+000
      vertex 1.000000E+001 0.000000E+000 1.000000E+001
      vertex 0.000000E+000 0.000000E+000 1.000000E+001
    endloop
  endfacet
  facet normal 0.000000E+000 1.000000E+000 0.000000E+000
    outer loop
      vertex 0.000000E+000 1.000000E+001 0.000000E+000
      vertex 0.000000E+000 1.000000E+001 1.000000E+001
      vertex 1.000000E+001 1.000000E+001 1.000000E+001
    endloop
  endfacet
  facet normal 0.000000E+000 1.000000E+000 0.000000E+000
    outer loop
      vertex 0.000000E+000 1.000000E+001 0.000000E+000
      vertex 1.000000E+001 1.000000E+001 1.000000E+001
      vertex 1.000000E+001 1.000000E+001 0.000000E+000
    endloop
  endfacet
  facet normal -1.000000E+000 0.000000E+000 0.000000E+000
    outer loop
      vertex 0.000000E+000 0.000000E+000 0.000000E+000
      vertex 0.000000E+000 0.000000E+000 1.000000E+001
      vertex 0.000000E+000 1.000000E+001 1.000000E+001
    endloop
  endfacet
  facet normal -1.000000E+000 0.000000E+000 0.000000E+000
    outer loop
      vertex 0.000000E+000 0.000000E+000 0.000000E+000
      vertex 0.000000E+000 1.000000E+001 1.000000E+001
      vertex 0.000000E+000 1.000000E+001 0.000000E+000
    endloop
  endfacet
  facet normal 1.000000E+000 0.000000E+000 0.000000E+000
    outer loop
      vertex 1.000000E+001 0.000000E+000 0.000000E+000
      vertex 1.000000E+001 1.000000E+001 0.000000E+000
      vertex 1.000000E+001 1.000000E+001 1.000000E+001
    endloop
  endfacet
  facet normal 1.000000E+000 0.000000E+000 0.000000E+000
    outer loop
      vertex 1.000000E+001 0.000000E+000 0.000000E+000
      vertex 1.000000E+001 1.000000E+001 1.000000E+001
      vertex 1.000000E+001 0.000000E+000 1.000000E+001
    endloop
  endfacet
endsolid cube
